<svg width="128" height="128" viewBox="0 0 128 128" xmlns="http://www.w3.org/2000/svg">
  <defs>
    <linearGradient id="gradient" x1="0%" y1="0%" x2="100%" y2="100%">
      <stop offset="0%" style="stop-color:#6366f1;stop-opacity:1" />
      <stop offset="100%" style="stop-color:#8b5cf6;stop-opacity:1" />
    </linearGradient>
  </defs>
  
  <!-- Background circle -->
  <circle cx="64" cy="64" r="60" fill="url(#gradient)" stroke="#ffffff" stroke-width="4"/>
  
  <!-- Document icon -->
  <rect x="40" y="30" width="48" height="60" rx="4" fill="#ffffff" opacity="0.9"/>
  <rect x="45" y="40" width="38" height="3" rx="1.5" fill="#6366f1"/>
  <rect x="45" y="48" width="30" height="3" rx="1.5" fill="#6366f1"/>
  <rect x="45" y="56" width="35" height="3" rx="1.5" fill="#6366f1"/>
  
  <!-- Twitter bird silhouette -->
  <path d="M75 75c-2 0-4-1-5-3-1 1-3 2-5 2-3 0-5-2-5-5 0-1 0-2 1-3-2 0-4-1-6-3 0 1 0 2 1 3-1-1-2-2-2-4 0-1 0-2 1-3 1 1 3 2 5 2-1-1-2-3-2-5 0-1 0-2 1-3 2 1 4 2 6 2-1-1-2-3-2-5 0-1 0-2 1-3 2 1 4 2 6 2-1-1-2-3-2-5 0-1 0-2 1-3 2 1 4 2 6 2" fill="#ffffff" opacity="0.8"/>
</svg>
